<svg xmlns="http://www.w3.org/2000/svg" viewBox="0 0 201 80" fill="none">
  <!-- trasio wordmark — Inter Bold 700, outlined to paths (no font required) -->
  <path d="M14.81 23.06L21.34 23.06L21.34 30.22L14.81 30.22L14.81 47.78Q14.81 49.44 15.55 50.23Q16.28 51.03 18 51.03L18 51.03Q18.53 51.03 19.50 50.89Q20.47 50.75 20.97 50.63L20.97 50.63L22.31 57.66Q20.75 58.13 19.20 58.31Q17.66 58.50 16.25 58.50L16.25 58.50Q11 58.50 8.22 55.94Q5.44 53.38 5.44 48.59L5.44 48.59L5.44 30.22L0.63 30.22L0.63 23.06L5.44 23.06L5.44 14.75L14.81 14.75L14.81 23.06ZM36.81 58L27.44 58L27.44 23.06L36.50 23.06L36.50 29.16L36.88 29.16Q37.84 25.91 40.11 24.25Q42.38 22.59 45.31 22.59L45.31 22.59Q46.03 22.59 46.88 22.67Q47.72 22.75 48.34 22.91L48.34 22.91L48.34 31.28Q47.72 31.06 46.53 30.94Q45.34 30.81 44.28 30.81L44.28 30.81Q42.16 30.81 40.44 31.73Q38.72 32.66 37.77 34.30Q36.81 35.94 36.81 38.13L36.81 38.13L36.81 58ZM63.25 58.69L63.25 58.69Q59.94 58.69 57.30 57.52Q54.66 56.34 53.14 54.02Q51.63 51.69 51.63 48.22L51.63 48.22Q51.63 45.31 52.70 43.34Q53.78 41.38 55.64 40.19Q57.50 39 59.86 38.38Q62.22 37.75 64.81 37.50L64.81 37.50Q67.84 37.19 69.70 36.92Q71.56 36.66 72.42 36.08Q73.28 35.50 73.28 34.38L73.28 34.38L73.28 34.22Q73.28 32.72 72.66 31.69Q72.03 30.66 70.80 30.11Q69.56 29.56 67.81 29.56L67.81 29.56Q66 29.56 64.66 30.11Q63.31 30.66 62.47 31.56Q61.63 32.47 61.22 33.59L61.22 33.59L52.63 32.19Q53.53 29.13 55.63 27Q57.72 24.88 60.83 23.75Q63.94 22.63 67.84 22.63L67.84 22.63Q70.66 22.63 73.31 23.30Q75.97 23.97 78.08 25.38Q80.19 26.78 81.42 29.05Q82.66 31.31 82.66 34.47L82.66 34.47L82.66 58L73.78 58L73.78 53.16L73.47 53.16Q72.63 54.78 71.22 56.02Q69.81 57.25 67.83 57.97Q65.84 58.69 63.25 58.69ZM65.91 52.09L65.91 52.09Q68.13 52.09 69.80 51.22Q71.47 50.34 72.41 48.84Q73.34 47.34 73.34 45.50L73.34 45.50L73.34 41.72Q72.94 42.03 72.09 42.28Q71.25 42.53 70.22 42.72Q69.19 42.91 68.19 43.06Q67.19 43.22 66.41 43.31L66.41 43.31Q64.69 43.56 63.38 44.13Q62.06 44.69 61.34 45.61Q60.63 46.53 60.63 47.97L60.63 47.97Q60.63 49.31 61.31 50.23Q62 51.16 63.19 51.63Q64.38 52.09 65.91 52.09ZM104.53 58.69L104.53 58.69Q100.31 58.69 97.06 57.48Q93.81 56.28 91.75 53.98Q89.69 51.69 89.09 48.44L89.09 48.44L97.81 46.94Q98.50 49.38 100.22 50.59Q101.94 51.81 104.81 51.81L104.81 51.81Q107.50 51.81 109.05 50.80Q110.59 49.78 110.59 48.22L110.59 48.22Q110.59 46.84 109.48 45.97Q108.38 45.09 106.09 44.63L106.09 44.63L100.06 43.38Q95 42.34 92.50 39.86Q90 37.38 90 33.47L90 33.47Q90 30.09 91.84 27.67Q93.69 25.25 96.97 23.94Q100.25 22.63 104.69 22.63L104.69 22.63Q108.81 22.63 111.84 23.77Q114.88 24.91 116.75 27Q118.63 29.09 119.25 31.94L119.25 31.94L110.94 33.41Q110.41 31.63 108.89 30.48Q107.38 29.34 104.81 29.34L104.81 29.34Q102.50 29.34 100.94 30.31Q99.38 31.28 99.38 32.91L99.38 32.91Q99.38 34.22 100.39 35.13Q101.41 36.03 103.88 36.53L103.88 36.53L110.16 37.78Q115.22 38.81 117.69 41.14Q120.16 43.47 120.16 47.22L120.16 47.22Q120.16 50.66 118.16 53.23Q116.16 55.81 112.64 57.25Q109.13 58.69 104.53 58.69ZM135.88 58L126.50 58L126.50 23.06L135.88 23.06L135.88 58ZM131.19 18.50L131.19 18.50Q129.06 18.50 127.56 17.09Q126.06 15.69 126.06 13.69L126.06 13.69Q126.06 11.69 127.56 10.28Q129.06 8.88 131.19 8.88L131.19 8.88Q133.31 8.88 134.83 10.27Q136.34 11.66 136.34 13.69L136.34 13.69Q136.34 15.69 134.83 17.09Q133.31 18.50 131.19 18.50ZM159.47 58.69L159.47 58.69Q154.22 58.69 150.38 56.42Q146.53 54.16 144.45 50.11Q142.38 46.06 142.38 40.69L142.38 40.69Q142.38 35.25 144.45 31.20Q146.53 27.16 150.38 24.89Q154.22 22.63 159.47 22.63L159.47 22.63Q164.75 22.63 168.58 24.89Q172.41 27.16 174.48 31.20Q176.56 35.25 176.56 40.69L176.56 40.69Q176.56 46.06 174.48 50.11Q172.41 54.16 168.58 56.42Q164.75 58.69 159.47 58.69ZM159.47 51.31L159.47 51.31Q161.97 51.31 163.66 49.92Q165.34 48.53 166.19 46.11Q167.03 43.69 167.03 40.66L167.03 40.66Q167.03 37.56 166.19 35.16Q165.34 32.75 163.66 31.38Q161.97 30 159.47 30L159.47 30Q156.97 30 155.30 31.38Q153.63 32.75 152.78 35.16Q151.94 37.56 151.94 40.66L151.94 40.66Q151.94 43.69 152.78 46.11Q153.63 48.53 155.30 49.92Q156.97 51.31 159.47 51.31Z" fill="#1A1A1A"/>
  <rect x="183" y="44" width="14" height="14" fill="#2ECC71"/>
</svg>